<svg width="30" height="30" viewBox="0 0 30 30" fill="none" xmlns="http://www.w3.org/2000/svg">
    <path d="m4 4 2.543.44L7.72 18.466a2.2 2.2 0 0 0 2.2 2.02h13.337a2.2 2.2 0 0 0 2.182-1.89l1.16-8.016a1.64 1.64 0 0 0-1.387-1.857c-.078-.011-18.26-.018-18.26-.018M17.906 13.225h3.39" stroke="#121212" stroke-width="1.5" stroke-linecap="round" stroke-linejoin="round"/>
    <path clip-rule="evenodd" d="M10.049 25.39a.665.665 0 1 1-1.33.002.665.665 0 0 1 1.33-.002zM23.84 25.39a.666.666 0 1 1-1.333 0 .666.666 0 0 1 1.332 0z" stroke="#121212" stroke-width="2" stroke-linecap="round" stroke-linejoin="round"/>
</svg>
