<svg width="30" height="30" viewBox="0 0 30 30" fill="none" xmlns="http://www.w3.org/2000/svg">
    <path d="M14.721 3c.381.079.772.139 1.144.24 2.507.667 4.405 2.845 4.682 5.354.364 3.31-1.806 6.232-5.151 6.936-3.53.746-7.126-1.646-7.702-5.117-.568-3.441 1.643-6.583 5.144-7.299.21-.043.421-.076.632-.114h1.251zm-.632 1.406c-2.771.004-5.047 2.223-5.047 4.922 0 2.7 2.276 4.918 5.047 4.923 2.771.004 5.068-2.229 5.06-4.935-.008-2.706-2.29-4.915-5.06-4.91zM14.087 27h-9.96c-.6 0-.857-.26-.857-.843.024-4.134 3.06-7.888 7.18-8.83.703-.161 1.44-.22 2.164-.25.976-.042 1.956-.03 2.934-.008 3.756.084 6.502 1.803 8.307 4.969.736 1.29 1.06 2.702 1.068 4.18 0 .5-.285.779-.802.779L14.087 27zm9.356-1.418c-.023-.188-.038-.357-.064-.526-.643-3.836-3.95-6.58-7.937-6.587-.9 0-1.796-.018-2.694.006-.55.015-1.112.04-1.646.157-2.933.647-4.907 2.38-5.949 5.116a6.567 6.567 0 0 0-.398 1.834h18.688z" fill="#121212"/>
</svg>
