<?xml version="1.0" standalone="no"?>
<!DOCTYPE svg PUBLIC "-//W3C//DTD SVG 20010904//EN"
 "http://www.w3.org/TR/2001/REC-SVG-20010904/DTD/svg10.dtd">
<svg version="1.0" xmlns="http://www.w3.org/2000/svg"
 width="359.000000pt" height="359.000000pt" viewBox="0 0 359.000000 359.000000"
 preserveAspectRatio="xMidYMid meet">
<metadata>
Created by potrace 1.14, written by Peter Selinger 2001-2017
</metadata>
<g transform="translate(0.000000,359.000000) scale(0.100000,-0.100000)"
fill="#000000" stroke="none">
<path d="M1393 3235 c-131 -29 -254 -100 -363 -207 -83 -82 -111 -117 -113
-139 -1 -10 -7 -21 -14 -23 -7 -3 -13 -15 -13 -26 0 -28 -22 -34 -57 -16 -47
24 -203 73 -311 97 -116 26 -151 19 -173 -33 -11 -26 -10 -35 6 -64 19 -36 23
-38 100 -54 28 -6 55 -12 60 -14 6 -1 24 -6 40 -10 139 -35 375 -134 375 -158
0 -7 -18 -33 -40 -58 -22 -25 -40 -48 -40 -52 0 -4 -6 -13 -13 -20 -38 -39
-132 -215 -165 -308 -48 -135 -67 -221 -79 -365 -8 -102 -8 -100 0 -215 20
-255 113 -500 265 -699 59 -77 178 -201 227 -236 16 -11 33 -25 39 -30 38 -37
189 -122 296 -168 53 -22 190 -64 234 -71 21 -4 48 -8 60 -11 64 -14 277 -21
336 -11 14 3 48 7 75 10 28 4 68 11 90 16 22 6 49 13 60 15 55 13 157 50 230
85 88 42 265 155 265 171 0 5 5 9 12 9 21 0 183 174 241 260 32 45 57 84 57
87 0 3 8 17 18 31 10 15 25 43 32 62 8 19 17 37 20 40 10 8 80 231 90 290 19
99 22 133 21 260 0 231 -46 424 -149 625 -88 171 -275 385 -404 463 -16 9 -28
20 -28 24 0 4 -4 8 -10 8 -5 0 -26 12 -47 26 -75 50 -274 134 -353 148 -14 2
-37 9 -51 14 -15 6 -60 14 -100 18 -41 3 -85 8 -99 10 -14 1 -42 3 -62 3 -43
1 -48 14 -15 45 26 25 90 104 95 117 2 5 -2 9 -10 10 -7 0 -20 2 -28 5 -46 12
-106 22 -112 18 -5 -3 -8 -1 -8 3 0 5 -17 10 -39 11 -21 2 -49 5 -62 8 -58 14
-325 13 -386 -1z"/>
</g>
</svg>
